<svg width="24" height="25" viewBox="0 0 24 25" fill="none" xmlns="http://www.w3.org/2000/svg">
<path d="M2.25 21.5H21.75" stroke="#A3AED0" stroke-width="1.5" stroke-linecap="round" stroke-linejoin="round"/>
<path d="M5.25 21.5V4.25C5.25 4.05109 5.32902 3.86032 5.46967 3.71967C5.61032 3.57902 5.80109 3.5 6 3.5H18C18.1989 3.5 18.3897 3.57902 18.5303 3.71967C18.671 3.86032 18.75 4.05109 18.75 4.25V21.5" stroke="#A3AED0" stroke-width="1.5" stroke-linecap="round" stroke-linejoin="round"/>
<path d="M15 12.5C15 12.7071 14.8321 12.875 14.625 12.875C14.4179 12.875 14.25 12.7071 14.25 12.5C14.25 12.2929 14.4179 12.125 14.625 12.125C14.8321 12.125 15 12.2929 15 12.5Z" fill="white" stroke="#A3AED0" stroke-width="1.5"/>
</svg>
