<svg width="118" height="56" viewBox="0 0 118 56" fill="none" xmlns="http://www.w3.org/2000/svg">
<g clip-path="url(#clip0_105_11698)">
<path d="M3.88473 14.3304C3.77185 14.3304 3.65862 14.335 3.54566 14.3446C3.43278 14.3539 3.33365 14.3681 3.24905 14.3873C3.1454 14.4061 3.05123 14.4199 2.9663 14.4296V18.768H3.81389C4.04922 18.768 4.28259 18.735 4.5134 18.6686C4.74386 18.6026 4.94886 18.4845 5.12762 18.3144C5.30673 18.1442 5.4502 17.915 5.55847 17.6269C5.66674 17.3385 5.72074 16.9771 5.72074 16.5423C5.72074 16.1076 5.66674 15.7484 5.55847 15.4646C5.4502 15.1812 5.30895 14.9542 5.1348 14.7841C4.96031 14.6143 4.76514 14.496 4.54852 14.4299C4.3319 14.3635 4.11041 14.3305 3.88456 14.3305L3.88473 14.3304ZM3.88473 13.7632C4.09178 13.7632 4.33207 13.7728 4.605 13.7916C4.87819 13.8104 5.15608 13.8553 5.4385 13.9264C5.72091 13.9971 5.99675 14.0942 6.26473 14.2171C6.5333 14.34 6.7759 14.5079 6.99252 14.7203C7.20914 14.9331 7.38098 15.193 7.50796 15.4999C7.63537 15.8072 7.69852 16.1781 7.69852 16.6133C7.69852 17.0196 7.63529 17.3692 7.50796 17.6623C7.3809 17.9553 7.21367 18.2034 7.00662 18.4066C6.79923 18.6098 6.56851 18.773 6.31438 18.8959C6.0599 19.0188 5.80807 19.1133 5.55856 19.1793C5.30904 19.2453 5.07336 19.288 4.85213 19.3072C4.63089 19.326 4.44956 19.3356 4.30831 19.3356H2.9663V23.1206H1.12985V15.6067C1.12985 15.1812 1.07089 14.8386 0.953396 14.5786C0.835558 14.3189 0.564933 14.1887 0.141007 14.1887H-0.000244141V13.7635H3.8843L3.88464 13.7632H3.88473Z" fill="#01A54A"/>
<path d="M12.05 14.3304C11.9367 14.3304 11.8238 14.3351 11.7105 14.3447C11.5977 14.3539 11.4989 14.3682 11.4139 14.3869C11.3103 14.4058 11.2165 14.42 11.1315 14.4296V18.2718H11.9791C12.205 18.2718 12.4311 18.2388 12.6569 18.1726C12.883 18.1063 13.0878 17.9975 13.2715 17.8462C13.4552 17.6953 13.6036 17.492 13.7165 17.2367C13.8294 16.9817 13.8861 16.6698 13.8861 16.3012C13.8861 15.9325 13.8297 15.6229 13.7165 15.3725C13.6036 15.1221 13.4574 14.9189 13.2787 14.763C13.0996 14.6071 12.9018 14.4958 12.6853 14.4297C12.4687 14.3636 12.257 14.3305 12.0496 14.3305H12.05V14.3304ZM11.6964 18.8389H11.1316V23.1205H9.28098V15.6063C9.28098 15.1811 9.22202 14.8386 9.10452 14.5785C8.98668 14.3185 8.71606 14.1887 8.29213 14.1887H8.15088V13.7631H12.05C12.2758 13.7631 12.5256 13.7727 12.7985 13.7915C13.0717 13.8104 13.3496 13.853 13.632 13.9194C13.9144 13.9854 14.1899 14.0776 14.4582 14.1955C14.7268 14.3138 14.9645 14.4697 15.1718 14.6634C15.3789 14.8573 15.5461 15.0935 15.6732 15.3724C15.8006 15.6512 15.8637 15.9842 15.8637 16.3717C15.8637 16.7404 15.7956 17.0592 15.659 17.3288C15.5224 17.5981 15.3437 17.8251 15.1221 18.0094C14.9009 18.1937 14.6537 18.3424 14.3805 18.456C14.1073 18.5693 13.839 18.6595 13.5753 18.7253L15.0586 21.2064C15.2377 21.509 15.4095 21.7571 15.5741 21.9507C15.739 22.1443 15.8966 22.2982 16.0474 22.4116C16.1978 22.5249 16.3371 22.6075 16.4641 22.6597C16.5912 22.7116 16.7067 22.7469 16.8101 22.7661V23.1202C16.7348 23.1582 16.6004 23.1913 16.4076 23.2196C16.2144 23.248 16.0287 23.2623 15.8496 23.2623C15.6051 23.2623 15.3671 23.2292 15.1363 23.1629C14.9056 23.0968 14.6794 22.9835 14.4582 22.8226C14.2367 22.662 14.0155 22.4492 13.7943 22.1846C13.573 21.9199 13.3446 21.5939 13.1093 21.2064L11.6965 18.8389H11.6964ZM23.0822 13.7631C23.3274 13.7631 23.5276 13.7961 23.6826 13.8625C23.8383 13.9286 23.9607 14.0135 24.0499 14.1176C24.1395 14.2216 24.2007 14.3422 24.2336 14.4793C24.2665 14.6161 24.2834 14.7555 24.2834 14.8976V16.1024H23.8594C23.8594 15.4976 23.7063 15.0628 23.4005 14.7982C23.0941 14.5335 22.6585 14.4011 22.0937 14.4011H19.8191V17.9456H23.492V18.5836H19.8191V22.4826H22.2346C22.7527 22.4826 23.1931 22.3667 23.5556 22.1351C23.9183 21.9035 24.2219 21.4807 24.4668 20.8662L24.8483 21.0082L24.4385 22.1282C24.3351 22.4305 24.2008 22.6716 24.0359 22.8513C23.871 23.0307 23.5958 23.1206 23.2097 23.1206H17.983V15.6064C17.983 15.1812 17.9241 14.8387 17.8062 14.5786C17.6887 14.3186 17.4178 14.1888 16.9942 14.1888H16.8529V13.7632H23.0822V13.7631ZM33.3241 13.7631L27.7864 22.4825H33.2533V23.1202H25.5546V22.6666L30.8096 14.3869H27.744C27.245 14.3869 26.8493 14.5144 26.5577 14.7698C26.2657 15.0248 26.1196 15.4692 26.1196 16.1025H25.6959V14.8973C25.6959 14.7553 25.7124 14.6162 25.7453 14.4791C25.7782 14.3419 25.8395 14.2213 25.929 14.1177C26.0186 14.0136 26.1407 13.9287 26.296 13.8623C26.4517 13.7959 26.6518 13.7629 26.8964 13.7629H33.3242V13.7632L33.3241 13.7631ZM34.6941 13.7631H36.5306V21.2773C36.5306 21.7025 36.5895 22.0451 36.707 22.3051C36.8249 22.5651 37.0957 22.695 37.5194 22.695H37.6607V23.1205H35.9657C35.7208 23.1205 35.5161 23.0921 35.3512 23.0353C35.1862 22.9787 35.0546 22.8793 34.9555 22.7376C34.8567 22.5958 34.7883 22.4069 34.7508 22.1707C34.7133 21.9342 34.6941 21.6365 34.6941 21.2774V13.7632V13.7631ZM42.1104 14.3303C41.9691 14.3303 41.8349 14.335 41.7078 14.3446C41.5808 14.3538 41.4652 14.3681 41.3618 14.3869C41.2486 14.4057 41.1452 14.4199 41.0508 14.4295V22.4541C41.1453 22.473 41.2486 22.4918 41.3618 22.5107C41.5597 22.539 41.8088 22.5533 42.1104 22.5533H42.2516C42.7415 22.5533 43.1937 22.4588 43.6078 22.2698C44.0223 22.0809 44.3804 21.8093 44.6816 21.4545C44.9828 21.1003 45.2185 20.6679 45.3881 20.1574C45.5573 19.647 45.6422 19.0751 45.6422 18.4422C45.6422 17.8181 45.5599 17.2532 45.395 16.7477C45.2301 16.2422 44.997 15.8095 44.6955 15.4504C44.3943 15.0913 44.0342 14.8151 43.6151 14.6212C43.1961 14.4276 42.732 14.3304 42.2237 14.3304H42.1108H42.1105L42.1104 14.3303ZM41.9267 13.7631C42.8967 13.7631 43.7444 13.8695 44.4695 14.0822C45.1947 14.2947 45.8021 14.5996 46.2919 14.9967C46.7817 15.3938 47.1487 15.8782 47.3936 16.4497C47.6385 17.0216 47.761 17.6667 47.761 18.385C47.761 19.0844 47.6431 19.7249 47.4078 20.3061C47.1725 20.8872 46.8242 21.3857 46.3624 21.8017C45.9012 22.2176 45.3288 22.5414 44.6461 22.7729C43.9634 23.0045 43.1796 23.1202 42.2941 23.1202H39.2147V15.6063C39.2147 15.1808 39.1557 14.8382 39.0382 14.5782C38.9204 14.3185 38.6495 14.1883 38.2258 14.1883H38.0846V13.7631H41.927H41.9267ZM54.6261 13.7631C54.8711 13.7631 55.0712 13.7961 55.2265 13.8625C55.3819 13.9286 55.5047 14.0135 55.5939 14.1176C55.6834 14.2216 55.7443 14.3422 55.7776 14.4793C55.8105 14.6161 55.827 14.7555 55.827 14.8976V16.1024H55.4033C55.4033 15.4976 55.2503 15.0628 54.9441 14.7982C54.6379 14.5335 54.2025 14.4011 53.6373 14.4011H51.363V17.9456H55.0359V18.5836H51.363V22.4826H53.7785C54.2966 22.4826 54.7367 22.3667 55.0995 22.1351C55.4619 21.9035 55.7657 21.4807 56.0106 20.8662L56.3922 21.0082L55.9824 22.1282C55.8787 22.4305 55.7444 22.6716 55.5798 22.8513C55.4149 23.0307 55.1397 23.1206 54.7536 23.1206H49.5266V15.6064C49.5266 15.1812 49.4677 14.8387 49.3502 14.5786C49.2324 14.3186 48.9617 14.1888 48.5378 14.1888H48.3966V13.7632H54.6261V13.7631ZM64.6841 20.2849V13.7631H65.3905V23.163H64.7407L58.7511 16.1024V23.1204H58.0446V15.4645C58.0446 15.285 58.0258 15.117 57.9883 14.9613C57.9508 14.805 57.8824 14.6702 57.7836 14.5573C57.6845 14.4436 57.5529 14.3538 57.3879 14.2877C57.223 14.2217 57.0183 14.1886 56.7734 14.1886H56.703V13.763H57.6915C58.2284 13.763 58.6642 13.834 58.9983 13.9758C59.3327 14.1178 59.6082 14.3303 59.8249 14.6138L64.6842 20.2849H64.6841ZM74.5019 13.7631V14.4011H71.5496V23.1202H69.7128V14.4011H68.7101C68.2107 14.4011 67.8154 14.5263 67.5235 14.7767C67.2315 15.0272 67.0853 15.4692 67.0853 16.1025H66.6617V14.8973C66.6617 14.7556 66.6784 14.6162 66.7111 14.4791C66.744 14.3419 66.8052 14.2217 66.8948 14.1177C66.9843 14.0136 67.1068 13.9287 67.2621 13.8623C67.4175 13.7962 67.6176 13.7631 67.8625 13.7631H74.5019ZM83.3169 22.4541C82.7704 22.7848 82.1914 23.026 81.5791 23.1773C80.9669 23.3282 80.2983 23.4039 79.5732 23.4039C78.8388 23.4039 78.1606 23.2714 77.5389 23.0069C76.9177 22.7422 76.3805 22.3808 75.9286 21.9222C75.4766 21.464 75.1234 20.9252 74.869 20.3061C74.6148 19.6869 74.4878 19.0183 74.4878 18.3001C74.4878 17.6196 74.5983 16.9862 74.8196 16.4001C75.0408 15.814 75.3565 15.3037 75.7659 14.8688C76.1758 14.4341 76.6656 14.0938 77.2354 13.8484C77.8052 13.6022 78.4431 13.4797 79.1495 13.4797C80.0346 13.4797 80.7598 13.5953 81.325 13.8269C81.8898 14.0585 82.3043 14.3255 82.568 14.628C82.6621 14.7509 82.7329 14.8927 82.7796 15.0532C82.8271 15.2141 82.8623 15.382 82.8859 15.5567C82.9094 15.7315 82.9235 15.9089 82.9284 16.0883C82.933 16.268 82.9353 16.4379 82.9353 16.5987H82.5113C82.3326 15.7292 82.0031 15.0983 81.5225 14.7061C81.0426 14.3139 80.3925 14.1177 79.5732 14.1177C79.0083 14.1177 78.5303 14.2336 78.1396 14.4652C77.7486 14.6965 77.4286 15.0063 77.1788 15.3938C76.9296 15.781 76.7482 16.2277 76.635 16.7334C76.5221 17.2389 76.4655 17.7612 76.4655 18.3C76.4655 19.1599 76.5458 19.8808 76.7057 20.462C76.8657 21.0434 77.0873 21.5089 77.3697 21.8584C77.6521 22.2083 77.982 22.4587 78.3586 22.6101C78.7351 22.761 79.1404 22.837 79.5732 22.837C79.9972 22.837 80.3596 22.804 80.661 22.7376C80.9626 22.6712 81.2355 22.5817 81.4804 22.4683V19.9446C81.4804 19.7464 81.5106 19.5452 81.5722 19.342C81.6335 19.1388 81.7605 18.9545 81.9534 18.7889C82.1466 18.6238 82.4219 18.4863 82.7796 18.378C83.1378 18.2693 83.618 18.2148 84.2208 18.2148V18.5692C83.9005 18.5692 83.6697 18.6875 83.5285 18.9237C83.3873 19.1599 83.3169 19.4909 83.3169 19.9161V22.4536V22.454V22.4541ZM92.3573 21.3338C92.5269 21.7501 92.7343 22.0808 92.9792 22.3263C93.2241 22.5721 93.5065 22.7138 93.8268 22.7518V23.106C93.7514 23.1251 93.6453 23.1417 93.5088 23.1559C93.3722 23.1702 93.252 23.1771 93.1487 23.1771C92.9226 23.1771 92.6802 23.1559 92.4212 23.1134C92.1622 23.0708 91.9078 22.9859 91.6582 22.8583C91.4087 22.7305 91.1734 22.5465 90.9518 22.3053C90.7306 22.0641 90.5351 21.7407 90.3655 21.334L90.0383 20.5401H86.2621L85.0965 23.1202H84.3901L88.5574 13.7632H89.193L92.3574 21.3339L92.3573 21.3338ZM86.5586 19.902H89.77L88.2068 16.2019L86.5586 19.902Z" fill="#0183C6"/>
<path d="M14.4649 34.0609C14.4649 35.2039 14.562 36.0613 14.7558 36.6328C14.9501 37.204 15.3098 37.54 15.8352 37.6404V38.1115C14.4711 38.1115 13.4951 37.791 12.9068 37.1508C12.3186 36.5099 12.0246 35.4802 12.0246 34.0609V27.3915L7.91331 37.2635H7.29378L2.26299 27.0145V37.2635H1.32422V24.8292H3.61458L8.15753 34.0798L12.0059 24.8292H14.4649V34.061V34.0609Z" fill="#01A54A"/>
<path d="M20.2092 32.4032C20.2217 33.7094 20.4753 34.7359 20.9696 35.4836C21.464 36.2309 22.2053 36.6045 23.1938 36.6045C24.4707 36.6045 25.3996 36.2212 25.9816 35.4551C26.5636 34.689 26.8546 33.4831 26.8546 31.8379V24.8291H27.793V31.8379C27.793 32.7296 27.7054 33.5208 27.5303 34.2116C27.3549 34.9025 27.0705 35.4895 26.6761 35.9732C26.2818 36.4569 25.7689 36.8242 25.1369 37.0757C24.5049 37.3268 23.732 37.4522 22.8185 37.4522C19.4392 37.4522 17.7499 35.5807 17.7499 31.8379V27.2782C17.7499 26.713 17.6718 26.2578 17.5151 25.9125C17.3588 25.5669 16.999 25.3945 16.4358 25.3945V24.8292H18.5007C18.8263 24.8292 19.0986 24.8702 19.3174 24.9518C19.5363 25.0333 19.7114 25.1681 19.8431 25.3568C19.9744 25.5455 20.0653 25.7965 20.115 26.1104C20.1651 26.4246 20.1904 26.8141 20.1904 27.2786L20.2092 32.4033L20.2092 32.4032ZM34.5138 25.5827C34.3636 25.5827 34.2136 25.589 34.0631 25.6016C33.913 25.6141 33.7814 25.633 33.6691 25.6585C33.5312 25.6836 33.4061 25.7024 33.2935 25.7146V30.8205H34.4199C34.7201 30.8205 35.0207 30.7765 35.3209 30.6886C35.6214 30.6007 35.8933 30.4561 36.1372 30.2552C36.3814 30.0543 36.5786 29.7844 36.7287 29.4454C36.8788 29.1062 36.9538 28.6915 36.9538 28.2019C36.9538 27.7116 36.8788 27.3006 36.7287 26.9676C36.5785 26.6346 36.3844 26.3647 36.1467 26.1576C35.909 25.9505 35.646 25.8028 35.3583 25.7145C35.0706 25.627 34.7888 25.5827 34.5136 25.5827H34.5138ZM34.0444 31.5743H33.2935V37.2639H30.8343V27.2786C30.8343 26.7133 30.7563 26.2581 30.5996 25.9128C30.4432 25.5673 30.0831 25.3948 29.5202 25.3948H29.3326V24.8296H34.5138C34.8143 24.8296 35.1458 24.8421 35.5085 24.8672C35.8716 24.8923 36.2406 24.9488 36.6162 25.0367C36.9914 25.1246 37.3575 25.2471 37.7144 25.4041C38.0712 25.5614 38.3872 25.7685 38.6624 26.0259C38.9375 26.2832 39.16 26.5974 39.3286 26.9677C39.4975 27.3384 39.5821 27.7811 39.5821 28.2961C39.5821 28.7861 39.4912 29.2099 39.3102 29.5677C39.1285 29.9259 38.8905 30.2272 38.5966 30.4719C38.3026 30.717 37.9741 30.9146 37.6113 31.0656C37.2482 31.2162 36.8917 31.3355 36.5412 31.4237L38.5123 34.7208C38.75 35.1225 38.9784 35.4523 39.1973 35.7096C39.4166 35.967 39.6259 36.1711 39.8263 36.3222C40.0264 36.4725 40.2107 36.5828 40.3796 36.6518C40.5488 36.7209 40.7022 36.7678 40.8398 36.7929V37.264C40.7397 37.3142 40.5613 37.3582 40.3045 37.3958C40.048 37.4335 39.8008 37.4527 39.5632 37.4527C39.238 37.4527 38.922 37.4084 38.6155 37.3205C38.3088 37.2326 38.0082 37.082 37.7143 36.8685C37.4203 36.6552 37.126 36.3723 36.8321 36.0205C36.5378 35.669 36.2343 35.2359 35.9216 34.7209L34.0443 31.5745L34.0444 31.5743ZM51.0893 31.0463C51.0893 29.2128 50.7766 27.7965 50.1509 26.7981C49.5251 25.7994 48.6429 25.3002 47.504 25.3002C46.3651 25.3002 45.4862 25.7997 44.8667 26.7981C44.2472 27.7965 43.9375 29.2128 43.9375 31.0463C43.9375 32.8802 44.2472 34.2966 44.8667 35.2949C45.4863 36.2936 46.3651 36.7928 47.504 36.7928C48.6429 36.7928 49.5251 36.2936 50.1509 35.2949C50.7767 34.2966 51.0893 32.8803 51.0893 31.0463ZM41.3093 31.0463C41.3093 30.117 41.4561 29.2505 41.7504 28.4467C42.0444 27.6429 42.4638 26.9455 43.0082 26.3551C43.5526 25.7651 44.2034 25.3002 44.9605 24.9609C45.7176 24.622 46.5652 24.4522 47.504 24.4522C48.4425 24.4522 49.2908 24.622 50.0479 24.9609C50.8046 25.3002 51.4524 25.7651 51.9906 26.3551C52.5284 26.9455 52.9448 27.6429 53.2388 28.4467C53.5327 29.2504 53.6799 30.117 53.6799 31.0463C53.6799 31.976 53.5327 32.8425 53.2388 33.6463C52.9448 34.4504 52.5284 35.1475 51.9906 35.7379C51.4524 36.3282 50.8046 36.7927 50.0479 37.132C49.2904 37.4709 48.4425 37.6407 47.504 37.6407C46.5653 37.6407 45.7176 37.4709 44.9605 37.132C44.2034 36.7927 43.5526 36.3282 43.0082 35.7379C42.4638 35.1475 42.0444 34.4504 41.7504 33.6463C41.4561 32.8425 41.3093 31.9759 41.3093 31.0463ZM58.2041 35.7002C58.2041 36.5166 58.1449 37.1885 58.026 37.7161C57.9072 38.2434 57.691 38.6672 57.3786 38.9877C57.0656 39.3079 56.6369 39.5308 56.0925 39.6564C55.5481 39.782 54.8568 39.8451 54.0184 39.8451V39.2798C54.2936 39.2418 54.5408 39.1603 54.7597 39.0351C54.9787 38.9092 55.1637 38.7113 55.3134 38.4414C55.4635 38.1712 55.5761 37.8134 55.6511 37.3674C55.7265 36.9215 55.764 36.3657 55.764 35.7V24.8293H58.2041V35.7V35.7004V35.7002ZM70.3308 34.8898C70.5563 35.4426 70.8315 35.8823 71.1571 36.2087C71.4823 36.5354 71.8578 36.7238 72.2831 36.774V37.245C72.1831 37.2702 72.0425 37.292 71.8608 37.3111C71.6794 37.3299 71.5198 37.3391 71.3822 37.3391C71.082 37.3391 70.7594 37.3111 70.4154 37.2539C70.0714 37.1977 69.7333 37.0848 69.4015 36.9149C69.0701 36.7455 68.757 36.5006 68.4631 36.1802C68.1692 35.8601 67.9095 35.43 67.6843 34.8898L67.2494 33.8349H62.2309L60.6821 37.2635H59.7437L65.2814 24.8291H66.1264L70.3312 34.8898H70.3308ZM62.6252 32.987H66.8923L64.8149 28.0697L62.6252 32.987ZM82.4767 34.8898C82.7018 35.4426 82.977 35.8823 83.3026 36.2087C83.6278 36.5354 84.0033 36.7238 84.429 36.774V37.245C84.3286 37.2702 84.188 37.292 84.0063 37.3111C83.8249 37.3299 83.6653 37.3391 83.5277 37.3391C83.2275 37.3391 82.9049 37.3111 82.5606 37.2539C82.2166 37.1977 81.8788 37.0848 81.547 36.9149C81.2156 36.7455 80.9025 36.5006 80.6086 36.1802C80.3143 35.8601 80.055 35.43 79.8298 34.8898L79.3949 33.8349H74.3764L72.8279 37.2635H71.8891L77.4268 24.8291H78.2715L82.4767 34.8898ZM74.7707 32.987H79.0378L76.9608 28.0697L74.7708 32.987H74.7707ZM93.5145 24.8292V25.677H89.5911V37.2636H87.1506V25.677H85.8178C85.1545 25.677 84.6289 25.8434 84.2411 26.1765C83.853 26.5091 83.6591 27.0962 83.6591 27.938H83.0958V26.3364C83.0958 26.1477 83.1176 25.9627 83.1614 25.7807C83.2055 25.5987 83.2865 25.4385 83.4056 25.3001C83.5245 25.162 83.6871 25.0489 83.8935 24.9611C84.1002 24.8732 84.3662 24.8293 84.6914 24.8293H93.5142H93.5145V24.8292Z" fill="#0183C6"/>
<path fill-rule="evenodd" clip-rule="evenodd" d="M103.311 53.1377C106.508 51.9741 109.626 50.4719 112.615 48.6559C116.654 39.2395 122.076 20.4557 113.236 0C118.597 24.8443 110.431 42.8917 103.311 53.1377Z" fill="#0183C6"/>
<path fill-rule="evenodd" clip-rule="evenodd" d="M88.0233 56C91.3697 55.9538 94.7068 55.5229 97.989 54.7377C104.924 46.8059 113.224 33.3229 113.792 13.846C109.061 36.6334 97.611 49.2238 88.0232 56H88.0233Z" fill="#EAECEC"/>
<path fill-rule="evenodd" clip-rule="evenodd" d="M73.0165 53.5186C74.7052 54.1222 76.4106 54.6092 78.1252 54.9898C85.6007 51.9471 103.712 42.1431 111.721 16.4372C97.341 44.4121 76.7901 49.7739 66.616 50.614C68.6433 51.7426 70.7774 52.7188 73.016 53.519L73.0164 53.5186H73.0165Z" fill="#01A54A"/>
</g>
<defs>
<clipPath id="clip0_105_11698">
<rect width="118" height="56" fill="white"/>
</clipPath>
</defs>
</svg>
