<svg width="24" height="25" viewBox="0 0 24 25" fill="none" xmlns="http://www.w3.org/2000/svg">
<path d="M20.25 7.25H3.75C3.33579 7.25 3 7.58579 3 8V20C3 20.4142 3.33579 20.75 3.75 20.75H20.25C20.6642 20.75 21 20.4142 21 20V8C21 7.58579 20.6642 7.25 20.25 7.25Z" stroke="#A3AED0" stroke-width="1.5" stroke-linecap="round" stroke-linejoin="round"/>
<path d="M15.75 20.75V5.75C15.75 5.35218 15.592 4.97064 15.3107 4.68934C15.0294 4.40804 14.6478 4.25 14.25 4.25H9.75C9.35218 4.25 8.97064 4.40804 8.68934 4.68934C8.40804 4.97064 8.25 5.35218 8.25 5.75V20.75" stroke="#A3AED0" stroke-width="1.5" stroke-linecap="round" stroke-linejoin="round"/>
</svg>
